<?xml version="1.0" encoding="UTF-8" standalone="no"?>
<!DOCTYPE svg PUBLIC "-//W3C//DTD SVG 1.1//EN"
 "http://www.w3.org/Graphics/SVG/1.1/DTD/svg11.dtd">
<!-- Generated by graphviz version 2.47.0 (20210316.0004)
 -->
<!-- Title: dependencies Pages: 1 -->
<svg width="1146pt" height="352pt"
 viewBox="0.00 0.00 1146.00 352.00" xmlns="http://www.w3.org/2000/svg" xmlns:xlink="http://www.w3.org/1999/xlink">
<g id="graph0" class="graph" transform="scale(1 1) rotate(0) translate(4 348)">
<title>dependencies</title>
<polygon fill="white" stroke="transparent" points="-4,4 -4,-348 1142,-348 1142,4 -4,4"/>
<text text-anchor="start" x="548.01" y="-42.4" font-family="Times-12" font-weight="bold" font-size="14.00">Legend</text>
<polygon fill="#ffffb3" stroke="transparent" points="335,-10 335,-30 355,-30 355,-10 335,-10"/>
<text text-anchor="start" x="358.63" y="-15.4" font-family="Times-12" font-size="14.00"> &#160;Declarations</text>
<polygon fill="#8dd3c7" stroke="transparent" points="448,-10 448,-30 468,-30 468,-10 448,-10"/>
<text text-anchor="start" x="471.73" y="-15.4" font-family="Times-12" font-size="14.00"> &#160;Module</text>
<polygon fill="#80b1d3" stroke="transparent" points="534,-10 534,-30 554,-30 554,-10 534,-10"/>
<text text-anchor="start" x="557.78" y="-15.4" font-family="Times-12" font-size="14.00"> &#160;Bootstrap</text>
<polygon fill="#fdb462" stroke="transparent" points="631,-10 631,-30 651,-30 651,-10 631,-10"/>
<text text-anchor="start" x="654.67" y="-15.4" font-family="Times-12" font-size="14.00"> &#160;Providers</text>
<polygon fill="#fb8072" stroke="transparent" points="727,-10 727,-30 747,-30 747,-10 727,-10"/>
<text text-anchor="start" x="750.73" y="-15.4" font-family="Times-12" font-size="14.00"> &#160;Exports</text>
<g id="clust1" class="cluster">
<title>cluster_AppModule</title>
<polygon fill="none" stroke="black" stroke-dasharray="1,5" points="290,-70 290,-336 674,-336 674,-70 290,-70"/>
</g>
<g id="clust3" class="cluster">
<title>cluster_AppModule_imports</title>
<polygon fill="none" stroke="black" points="436,-78 436,-271 666,-271 666,-78 436,-78"/>
</g>
<g id="clust6" class="cluster">
<title>cluster_AppModule_providers</title>
<polygon fill="none" stroke="black" points="298,-219 298,-271 428,-271 428,-219 298,-219"/>
</g>
<g id="clust7" class="cluster">
<title>cluster_AuthModule</title>
<polygon fill="none" stroke="black" stroke-dasharray="1,5" points="848,-135 848,-203 1130,-203 1130,-135 848,-135"/>
</g>
<g id="clust12" class="cluster">
<title>cluster_AuthModule_providers</title>
<polygon fill="none" stroke="black" points="856,-143 856,-195 1122,-195 1122,-143 856,-143"/>
</g>
<g id="clust13" class="cluster">
<title>cluster_CaslModule</title>
<polygon fill="none" stroke="black" stroke-dasharray="1,5" points="682,-135 682,-203 840,-203 840,-135 682,-135"/>
</g>
<g id="clust16" class="cluster">
<title>cluster_CaslModule_exports</title>
<polygon fill="none" stroke="black" points="690,-143 690,-195 832,-195 832,-143 690,-143"/>
</g>
<g id="clust25" class="cluster">
<title>cluster_UsersModule</title>
<polygon fill="none" stroke="black" stroke-dasharray="1,5" points="8,-211 8,-279 282,-279 282,-211 8,-211"/>
</g>
<g id="clust28" class="cluster">
<title>cluster_UsersModule_exports</title>
<polygon fill="none" stroke="black" points="164,-219 164,-271 274,-271 274,-219 164,-219"/>
</g>
<g id="clust30" class="cluster">
<title>cluster_UsersModule_providers</title>
<polygon fill="none" stroke="black" points="16,-219 16,-271 156,-271 156,-219 16,-219"/>
</g>
<!-- AuthModule -->
<g id="node1" class="node">
<title>AuthModule</title>
<polygon fill="#8dd3c7" stroke="black" points="656.55,-263 653.55,-267 632.55,-267 629.55,-263 569.45,-263 569.45,-227 656.55,-227 656.55,-263"/>
<text text-anchor="middle" x="613" y="-240.8" font-family="Times,serif" font-size="14.00">AuthModule</text>
</g>
<!-- AppModule -->
<g id="node5" class="node">
<title>AppModule</title>
<polygon fill="#8dd3c7" stroke="black" points="567.66,-328 564.66,-332 543.66,-332 540.66,-328 484.34,-328 484.34,-292 567.66,-292 567.66,-328"/>
<text text-anchor="middle" x="526" y="-305.8" font-family="Times,serif" font-size="14.00">AppModule</text>
</g>
<!-- AuthModule&#45;&gt;AppModule -->
<g id="edge1" class="edge">
<title>AuthModule&#45;&gt;AppModule</title>
<path fill="none" stroke="black" d="M569.02,-251C563.82,-251 560.32,-251 560.32,-251 560.32,-251 560.32,-281.98 560.32,-281.98"/>
<polygon fill="black" stroke="black" points="556.82,-281.98 560.32,-291.98 563.82,-281.98 556.82,-281.98"/>
</g>
<!-- CaslModule -->
<g id="node2" class="node">
<title>CaslModule</title>
<polygon fill="#8dd3c7" stroke="black" points="658.44,-122 655.44,-126 634.44,-126 631.44,-122 573.56,-122 573.56,-86 658.44,-86 658.44,-122"/>
<text text-anchor="middle" x="616" y="-99.8" font-family="Times,serif" font-size="14.00">CaslModule</text>
</g>
<!-- UsersModule -->
<g id="node4" class="node">
<title>UsersModule</title>
<polygon fill="#8dd3c7" stroke="black" points="636.92,-187 633.92,-191 612.92,-191 609.92,-187 545.08,-187 545.08,-151 636.92,-151 636.92,-187"/>
<text text-anchor="middle" x="591" y="-164.8" font-family="Times,serif" font-size="14.00">UsersModule</text>
</g>
<!-- CaslModule&#45;&gt;UsersModule -->
<g id="edge10" class="edge">
<title>CaslModule&#45;&gt;UsersModule</title>
<path fill="none" stroke="black" d="M615.73,-122.11C615.73,-122.11 615.73,-140.99 615.73,-140.99"/>
<polygon fill="black" stroke="black" points="612.23,-140.99 615.73,-150.99 619.23,-140.99 612.23,-140.99"/>
</g>
<!-- CaslModule&#45;&gt;AppModule -->
<g id="edge2" class="edge">
<title>CaslModule&#45;&gt;AppModule</title>
<path fill="none" stroke="black" d="M594.76,-122.04C594.76,-129.75 594.76,-137 594.76,-137 594.76,-137 530.01,-137 530.01,-137 530.01,-137 530.01,-281.81 530.01,-281.81"/>
<polygon fill="black" stroke="black" points="526.51,-281.81 530.01,-291.81 533.51,-281.81 526.51,-281.81"/>
</g>
<!-- CaslAbilityFactory  -->
<g id="node9" class="node">
<title>CaslAbilityFactory </title>
<polygon fill="#fb8072" stroke="black" points="824.32,-187 697.68,-187 697.68,-151 824.32,-151 824.32,-187"/>
<text text-anchor="middle" x="761" y="-164.8" font-family="Times,serif" font-size="14.00">CaslAbilityFactory </text>
</g>
<!-- CaslModule&#45;&gt;CaslAbilityFactory  -->
<g id="edge9" class="edge">
<title>CaslModule&#45;&gt;CaslAbilityFactory </title>
<path fill="none" stroke="black" stroke-dasharray="5,2" d="M646.74,-122.11C646.74,-141.34 646.74,-169 646.74,-169 646.74,-169 687.52,-169 687.52,-169"/>
<polygon fill="black" stroke="black" points="687.52,-172.5 697.52,-169 687.52,-165.5 687.52,-172.5"/>
</g>
<!-- CommonModule -->
<g id="node3" class="node">
<title>CommonModule</title>
<polygon fill="#8dd3c7" stroke="black" points="555.67,-122 552.67,-126 531.67,-126 528.67,-122 444.33,-122 444.33,-86 555.67,-86 555.67,-122"/>
<text text-anchor="middle" x="500" y="-99.8" font-family="Times,serif" font-size="14.00">CommonModule</text>
</g>
<!-- CommonModule&#45;&gt;AppModule -->
<g id="edge3" class="edge">
<title>CommonModule&#45;&gt;AppModule</title>
<path fill="none" stroke="black" d="M514.73,-122.28C514.73,-122.28 514.73,-281.76 514.73,-281.76"/>
<polygon fill="black" stroke="black" points="511.23,-281.76 514.73,-291.76 518.23,-281.76 511.23,-281.76"/>
</g>
<!-- UsersModule&#45;&gt;AuthModule -->
<g id="edge6" class="edge">
<title>UsersModule&#45;&gt;AuthModule</title>
<path fill="none" stroke="black" d="M602.97,-187.01C602.97,-187.01 602.97,-216.85 602.97,-216.85"/>
<polygon fill="black" stroke="black" points="599.47,-216.85 602.97,-226.85 606.47,-216.85 599.47,-216.85"/>
</g>
<!-- UsersModule&#45;&gt;AppModule -->
<g id="edge4" class="edge">
<title>UsersModule&#45;&gt;AppModule</title>
<path fill="none" stroke="black" d="M552.8,-187.14C552.8,-187.14 552.8,-281.93 552.8,-281.93"/>
<polygon fill="black" stroke="black" points="549.3,-281.92 552.8,-291.93 556.3,-281.93 549.3,-281.92"/>
</g>
<!-- UsersService  -->
<g id="node10" class="node">
<title>UsersService </title>
<polygon fill="#fb8072" stroke="black" points="265.85,-263 172.15,-263 172.15,-227 265.85,-227 265.85,-263"/>
<text text-anchor="middle" x="219" y="-240.8" font-family="Times,serif" font-size="14.00">UsersService </text>
</g>
<!-- UsersModule&#45;&gt;UsersService  -->
<g id="edge11" class="edge">
<title>UsersModule&#45;&gt;UsersService </title>
<path fill="none" stroke="black" stroke-dasharray="5,2" d="M545.01,-175C445.48,-175 219,-175 219,-175 219,-175 219,-216.97 219,-216.97"/>
<polygon fill="black" stroke="black" points="215.5,-216.97 219,-226.97 222.5,-216.97 215.5,-216.97"/>
</g>
<!-- AppService -->
<g id="node6" class="node">
<title>AppService</title>
<ellipse fill="#fdb462" stroke="black" cx="363" cy="-245" rx="56.74" ry="18"/>
<text text-anchor="middle" x="363" y="-240.8" font-family="Times,serif" font-size="14.00">AppService</text>
</g>
<!-- AppService&#45;&gt;AppModule -->
<g id="edge5" class="edge">
<title>AppService&#45;&gt;AppModule</title>
<path fill="none" stroke="black" d="M416.54,-239C454.77,-239 499.45,-239 499.45,-239 499.45,-239 499.45,-281.72 499.45,-281.72"/>
<polygon fill="black" stroke="black" points="495.95,-281.72 499.45,-291.72 502.95,-281.72 495.95,-281.72"/>
</g>
<!-- AuthService -->
<g id="node7" class="node">
<title>AuthService</title>
<ellipse fill="#fdb462" stroke="black" cx="1055" cy="-169" rx="59.11" ry="18"/>
<text text-anchor="middle" x="1055" y="-164.8" font-family="Times,serif" font-size="14.00">AuthService</text>
</g>
<!-- AuthService&#45;&gt;AuthModule -->
<g id="edge7" class="edge">
<title>AuthService&#45;&gt;AuthModule</title>
<path fill="none" stroke="black" d="M1055,-187.2C1055,-211.36 1055,-251 1055,-251 1055,-251 666.59,-251 666.59,-251"/>
<polygon fill="black" stroke="black" points="666.59,-247.5 656.59,-251 666.59,-254.5 666.59,-247.5"/>
</g>
<!-- JwtStrategy -->
<g id="node8" class="node">
<title>JwtStrategy</title>
<ellipse fill="#fdb462" stroke="black" cx="921" cy="-169" rx="56.76" ry="18"/>
<text text-anchor="middle" x="921" y="-164.8" font-family="Times,serif" font-size="14.00">JwtStrategy</text>
</g>
<!-- JwtStrategy&#45;&gt;AuthModule -->
<g id="edge8" class="edge">
<title>JwtStrategy&#45;&gt;AuthModule</title>
<path fill="none" stroke="black" d="M921,-187.03C921,-207.77 921,-239 921,-239 921,-239 666.8,-239 666.8,-239"/>
<polygon fill="black" stroke="black" points="666.8,-235.5 656.8,-239 666.8,-242.5 666.8,-235.5"/>
</g>
<!-- UsersService -->
<g id="node11" class="node">
<title>UsersService</title>
<ellipse fill="#fdb462" stroke="black" cx="86" cy="-245" rx="61.95" ry="18"/>
<text text-anchor="middle" x="86" y="-240.8" font-family="Times,serif" font-size="14.00">UsersService</text>
</g>
<!-- UsersService&#45;&gt;UsersModule -->
<g id="edge12" class="edge">
<title>UsersService&#45;&gt;UsersModule</title>
<path fill="none" stroke="black" d="M86,-226.8C86,-202.64 86,-163 86,-163 86,-163 534.85,-163 534.85,-163"/>
<polygon fill="black" stroke="black" points="534.85,-166.5 544.85,-163 534.85,-159.5 534.85,-166.5"/>
</g>
</g>
</svg>
